<?xml version="1.0" standalone="no"?>
<!DOCTYPE svg PUBLIC "-//W3C//DTD SVG 20010904//EN"
 "http://www.w3.org/TR/2001/REC-SVG-20010904/DTD/svg10.dtd">
<svg version="1.0" xmlns="http://www.w3.org/2000/svg"
 width="300.000000pt" height="300.000000pt" viewBox="0 0 300.000000 300.000000"
 preserveAspectRatio="xMidYMid meet">
<metadata>
    Copyright @ Spoken
</metadata>
<g transform="translate(0.000000,300.000000) scale(0.050000,-0.050000)"
fill="#000000" stroke="none">
<path d="M2620 5980 c-516 -72 -990 -266 -1429 -583 -20 -15 322 -477 353
-477 10 0 69 35 132 77 781 530 1867 531 2649 1 63 -43 123 -78 132 -78 31 0
372 462 352 476 -645 467 -1463 685 -2189 584z"/>
<path d="M506 4665 c-683 -1041 -663 -2406 48 -3389 l68 -95 229 172 c126 95
229 176 229 182 0 5 -50 88 -110 184 -501 790 -486 1841 38 2618 40 59 72 113
71 120 -1 11 -427 344 -459 358 -6 3 -57 -64 -114 -150z"/>
<path d="M5154 4645 c-269 -203 -253 -172 -162 -308 533 -790 533 -1892 0
-2675 -90 -133 -105 -105 162 -310 l224 -172 49 65 c736 980 751 2478 35 3470
l-76 106 -232 -176z"/>
<path d="M2636 4459 c-919 -226 -1398 -1250 -989 -2109 536 -1123 2170 -1123
2706 0 546 1144 -486 2412 -1717 2109z"/>
<path d="M1365 861 c-200 -264 -199 -237 -10 -360 1023 -672 2392 -650 3369
53 l95 68 -172 224 c-205 269 -172 253 -330 149 -815 -535 -1993 -514 -2715
48 -65 51 -53 60 -237 -182z"/>
</g>
</svg>
