<svg version="1.1" id="Artwork" xmlns:x="ns_extend;" xmlns:i="ns_ai;" xmlns:graph="ns_graphs;" xmlns="http://www.w3.org/2000/svg" xmlns:xlink="http://www.w3.org/1999/xlink" x="0px" y="0px" viewBox="0 0 687.8 147.6" style="enable-background:new 0 0 687.8 147.6;" xml:space="preserve">
 <style type="text/css">
  .st0{fill:#FFFFFF;}
 </style>
 <metadata>
  <sfw xmlns="ns_sfw;">
   <slices>
   </slices>
   <sliceSourceBounds bottomLeftOrigin="true" height="147.6" width="687.8" x="69.2" y="71.8">
   </sliceSourceBounds>
  </sfw>
 </metadata>
 <g>
  <g>
   <path class="st0" d="M307.2,53.6c-3-5.4-10.5-11.9-22.8-11.9c-19,0-34.4,14.5-34.4,35.8c0,19.1,12.7,36,34.4,36
			c9.5,0,18.5-3.9,22.8-11.8v9.7h16.1V43.8h-16.1V53.6z M307.3,78.1c-0.2,3.3-1,6.5-2.6,9.5c-3.1,6.2-9,10.8-18,10.8
			c-14.5,0-20.6-12.2-20.6-20.6v-0.1c0-10.5,7.4-21.1,20.4-21.1c9.7,0,16,5.5,18.8,11.9C306.8,71.5,307.4,74.9,307.3,78.1">
   </path>
   <path class="st0" d="M376.4,41.6c-11.2,0-19.1,5.2-23.9,11.9v-9.9h-15.1v91.3h16.1v-23.6v-9c2.7,4.3,9.9,11.1,23,11.1
			c19.8,0,33.5-16.1,33.5-35.3C410.1,61.7,400.1,41.6,376.4,41.6 M393.9,77.6c0,11.1-8.3,20.8-20.6,20.8c-5.8,0-11-2.3-14.7-6
			s-5.9-8.9-5.9-14.7c0-5.9,2.2-11.2,5.8-14.9c3.7-3.8,8.7-6.2,14.7-6.2c13.7,0,20.7,11.1,20.7,20.8V77.6z">
   </path>
   <rect x="420.7" y="43.7" class="st0" width="16.1" height="67.6">
   </rect>
   <path class="st0" d="M503.9,20.2v22.4v9.9c-2.5-3.9-9.7-10.8-22.7-10.8c-18.4,0-34,13.9-34,35.8c0,19.7,13.4,36,34.2,36
			c13.8,0,20.2-6.8,23.2-11.8v9.7H520V20.2H503.9z M499.1,92.1c-3.8,3.8-9.1,6.2-15,6.2c-12.4,0-20.7-9.4-20.7-20.8v-0.1
			c0-10.6,7.6-20.7,20.8-20.7c5.8,0,11,2.2,14.7,5.9c3.7,3.6,6,8.6,6,14.5C505.1,83,502.9,88.3,499.1,92.1">
   </path>
   <path class="st0" d="M428.8,14.5c-5.5,0-9.9,4.5-9.9,9.9c0,5.5,4.5,9.9,9.9,9.9c5.5,0,9.9-4.5,9.9-9.9S434.2,14.5,428.8,14.5">
   </path>
   <path class="st0" d="M242.9,50.2c0-19.7-14.2-30-35.2-30H176v91.1h18.4V79.4h0.7c2.1,0,3.4,1.9,3.4,1.9s12.3,14.1,16.7,19.3
			c7.2,8.3,12.6,11.7,21.3,11.7c4.3,0,8.4-1.4,11.4-5.1l-31.3-28.7C232.1,76,242.9,65.5,242.9,50.2 M194.4,33.7h9.9
			c12.6,0,21,5.4,21,16.5c0,12-10.8,16.3-21,16.3h-9.9V33.7z">
   </path>
  </g>
  <path class="st0" d="M89.3,97.2c-1.3-0.4-1.4-2.2,0.1-2.9c25.9-12.3,24.2-40.1,24.2-40.1C113.5,26,92.8-0.2,59.4,0
		C22.2,0.2-0.1,29.4,0,64c0.3,60.5,46.5,83.7,60.9,83.6l-0.1-24.1c0-3.8,0-6.8,2.3-6.8c0,0,14.9,14.9,31.4,14.8
		c25.8-0.1,34.5-21.7,34.5-21.7L89.3,97.2z M59.5,78.7C46.3,78.8,35.6,68.2,35.6,55c-0.1-13.2,10.5-23.9,23.7-23.9
		C72.5,31,83.2,41.6,83.2,54.8C83.3,68,72.7,78.7,59.5,78.7">
  </path>
  <g>
   <path class="st0" d="M537,110.8l22.3-68.9h19.5l22.4,68.9h-14.9l-19.2-62h3.2l-18.7,62H537z M551,95.3V84.4h35.9v10.9H551z">
   </path>
   <path class="st0" d="M609.6,110.8V41.9h27.1c4.9,0,9.1,0.9,12.6,2.8c3.6,1.9,6.3,4.5,8.2,8c1.9,3.4,2.9,7.5,2.9,12.2
			c0,4.4-1,8.3-2.9,11.7s-4.8,6.1-8.5,8s-8.2,2.9-13.3,2.9h-13.2V76.7h10.7c4.1,0,7.3-1,9.4-3c2.2-2,3.2-4.9,3.2-8.7
			c0-3.6-1-6.3-3.1-8.2c-2-1.9-4.9-2.8-8.5-2.8h-10.6v57h-14V110.8z">
   </path>
   <path class="st0" d="M673.6,110.8V41.9h14.2v68.9H673.6z">
   </path>
  </g>
 </g>
</svg>