<svg xmlns="http://www.w3.org/2000/svg" width="2000" height="2000" viewBox="0 0 2000 2000" version="1.1"><path d="" stroke="none" fill="#080404" fill-rule="evenodd"/><path d="M 336.203 1.564 C 36.769 34.222, -105.512 386.801, 87.858 616.977 C 275.470 840.301, 638.573 770.858, 731.043 493.970 C 817.157 236.112, 605.528 -27.811, 336.203 1.564 M 1718.500 1.565 C 1671.360 7.970, 1630.041 25.481, 1593 54.751 C 1579.875 65.122, 65.122 1579.875, 54.751 1593 C -129.005 1825.547, 174.453 2129.005, 407 1945.249 C 420.125 1934.878, 1934.878 420.125, 1945.249 407 C 2084.442 230.849, 1939.420 -28.454, 1718.500 1.565 M 1586.203 1251.564 C 1286.769 1284.222, 1144.488 1636.801, 1337.858 1866.977 C 1525.470 2090.301, 1888.573 2020.858, 1981.043 1743.970 C 2067.157 1486.112, 1855.528 1222.189, 1586.203 1251.564" stroke="none" fill="#040404" fill-rule="evenodd"/></svg>